# xmcd CD database file
#
# Track frame offsets:
#	150
#	18866
#	47579
#	65023
#	85912
#	109314
#	124066
#	149495
#	169852
#	189703
#
# Disc length: 2787 seconds
#
# Revision: 0
# Processed by: cddbd v1.5.1PL0 Copyright (c) Steve Scherf et al.
# Submitted via: CDex 1.51
#
DISCID=8d0ae10a
DTITLE=Various Artist - A Smooth Jazz Retreat
DYEAR=2005
DGENRE=Jazz
TTITLE0=Dan Siegel - In Your Eyes
TTITLE1=Warren Hill - Virgin Gorda
TTITLE2=Jeff Kashiwa - Homeward Bound
TTITLE3=Andy Snitzer - Some Quiet Place
TTITLE4=Josh Nelson - Amazing
TTITLE5=Steve Oliver - We Will Be
TTITLE6=Theo Bishop - Del Mar
TTITLE7=Juan Carlos Quintero - El Ultimo Baile
TTITLE8=Turning Point - Cruise Control
TTITLE9=Kleber Jorge - De Repente O Amor
EXTD=YEAR: 2005
EXTT0=
EXTT1=
EXTT2=
EXTT3=
EXTT4=
EXTT5=
EXTT6=
EXTT7=
EXTT8=
EXTT9=
PLAYORDER=
